<?xml version="1.0" encoding="UTF-8"?>
<svg version="1.1" xmlns="http://www.w3.org/2000/svg" width="400" height="400">
<path d="M0 0 C1.02529312 -0.00014603 2.05058624 -0.00029205 3.10694885 -0.0004425 C6.47236295 0.00025028 9.83772066 0.00801286 13.203125 0.01586914 C15.54581675 0.01773557 17.88850889 0.01915841 20.23120117 0.02015686 C26.3796294 0.02396429 32.52803379 0.03377937 38.67645264 0.04486084 C44.95747556 0.05511317 51.23850236 0.05966266 57.51953125 0.06469727 C69.83074129 0.07540329 82.14192743 0.09298566 94.453125 0.11352539 C94.453125 14.96352539 94.453125 29.81352539 94.453125 45.11352539 C64.423125 45.11352539 34.393125 45.11352539 3.453125 45.11352539 C3.453125 45.77352539 3.453125 46.43352539 3.453125 47.11352539 C2.31875 47.25790039 1.184375 47.40227539 0.015625 47.55102539 C-3.35464701 47.72524017 -3.35464701 47.72524017 -4.546875 49.11352539 C-6.21304615 49.15416371 -7.88075595 49.15624639 -9.546875 49.11352539 C-9.546875 49.77352539 -9.546875 50.43352539 -9.546875 51.11352539 C-10.866875 51.11352539 -12.186875 51.11352539 -13.546875 51.11352539 C-13.546875 51.77352539 -13.546875 52.43352539 -13.546875 53.11352539 C-16.186875 53.44352539 -18.826875 53.77352539 -21.546875 54.11352539 C-21.546875 54.77352539 -21.546875 55.43352539 -21.546875 56.11352539 C-22.206875 56.11352539 -22.866875 56.11352539 -23.546875 56.11352539 C-23.546875 56.77352539 -23.546875 57.43352539 -23.546875 58.11352539 C-24.206875 58.11352539 -24.866875 58.11352539 -25.546875 58.11352539 C-25.546875 58.77352539 -25.546875 59.43352539 -25.546875 60.11352539 C-26.206875 60.11352539 -26.866875 60.11352539 -27.546875 60.11352539 C-27.546875 60.77352539 -27.546875 61.43352539 -27.546875 62.11352539 C-28.866875 62.11352539 -30.186875 62.11352539 -31.546875 62.11352539 C-31.7325 63.25821289 -31.7325 63.25821289 -31.921875 64.42602539 C-32.546875 67.11352539 -32.546875 67.11352539 -34.546875 70.11352539 C-35.206875 70.11352539 -35.866875 70.11352539 -36.546875 70.11352539 C-36.546875 70.77352539 -36.546875 71.43352539 -36.546875 72.11352539 C-37.206875 72.11352539 -37.866875 72.11352539 -38.546875 72.11352539 C-38.546875 73.43352539 -38.546875 74.75352539 -38.546875 76.11352539 C-39.206875 76.11352539 -39.866875 76.11352539 -40.546875 76.11352539 C-40.546875 77.43352539 -40.546875 78.75352539 -40.546875 80.11352539 C-41.206875 80.11352539 -41.866875 80.11352539 -42.546875 80.11352539 C-42.546875 81.43352539 -42.546875 82.75352539 -42.546875 84.11352539 C-43.206875 84.11352539 -43.866875 84.11352539 -44.546875 84.11352539 C-44.546875 85.76352539 -44.546875 87.41352539 -44.546875 89.11352539 C-45.206875 89.11352539 -45.866875 89.11352539 -46.546875 89.11352539 C-46.546875 91.75352539 -46.546875 94.39352539 -46.546875 97.11352539 C-47.206875 97.11352539 -47.866875 97.11352539 -48.546875 97.11352539 C-48.546875 150.90352539 -48.546875 204.69352539 -48.546875 260.11352539 C-63.396875 260.11352539 -78.246875 260.11352539 -93.546875 260.11352539 C-93.546875 201.70352539 -93.546875 143.29352539 -93.546875 83.11352539 C-92.886875 83.11352539 -92.226875 83.11352539 -91.546875 83.11352539 C-91.5675 81.91727539 -91.588125 80.72102539 -91.609375 79.48852539 C-91.61570071 75.9334767 -91.24576375 72.60796916 -90.546875 69.11352539 C-89.886875 69.11352539 -89.226875 69.11352539 -88.546875 69.11352539 C-88.588125 68.39165039 -88.629375 67.66977539 -88.671875 66.92602539 C-88.53766195 63.9062317 -87.79516881 61.8441681 -86.546875 59.11352539 C-85.886875 59.11352539 -85.226875 59.11352539 -84.546875 59.11352539 C-84.546875 58.12352539 -84.546875 57.13352539 -84.546875 56.11352539 C-83.886875 56.11352539 -83.226875 56.11352539 -82.546875 56.11352539 C-82.546875 54.79352539 -82.546875 53.47352539 -82.546875 52.11352539 C-81.886875 52.11352539 -81.226875 52.11352539 -80.546875 52.11352539 C-80.546875 50.79352539 -80.546875 49.47352539 -80.546875 48.11352539 C-79.886875 48.11352539 -79.226875 48.11352539 -78.546875 48.11352539 C-78.546875 46.79352539 -78.546875 45.47352539 -78.546875 44.11352539 C-77.886875 44.11352539 -77.226875 44.11352539 -76.546875 44.11352539 C-76.546875 43.45352539 -76.546875 42.79352539 -76.546875 42.11352539 C-75.886875 42.11352539 -75.226875 42.11352539 -74.546875 42.11352539 C-74.546875 41.45352539 -74.546875 40.79352539 -74.546875 40.11352539 C-73.886875 40.11352539 -73.226875 40.11352539 -72.546875 40.11352539 C-72.546875 38.79352539 -72.546875 37.47352539 -72.546875 36.11352539 C-71.886875 36.11352539 -71.226875 36.11352539 -70.546875 36.11352539 C-70.546875 35.45352539 -70.546875 34.79352539 -70.546875 34.11352539 C-69.886875 34.11352539 -69.226875 34.11352539 -68.546875 34.11352539 C-68.546875 33.45352539 -68.546875 32.79352539 -68.546875 32.11352539 C-67.886875 32.11352539 -67.226875 32.11352539 -66.546875 32.11352539 C-66.546875 31.45352539 -66.546875 30.79352539 -66.546875 30.11352539 C-65.886875 30.11352539 -65.226875 30.11352539 -64.546875 30.11352539 C-64.546875 29.45352539 -64.546875 28.79352539 -64.546875 28.11352539 C-63.886875 28.11352539 -63.226875 28.11352539 -62.546875 28.11352539 C-62.546875 27.45352539 -62.546875 26.79352539 -62.546875 26.11352539 C-61.234375 24.48852539 -61.234375 24.48852539 -59.546875 23.11352539 C-58.556875 23.11352539 -57.566875 23.11352539 -56.546875 23.11352539 C-56.546875 22.45352539 -56.546875 21.79352539 -56.546875 21.11352539 C-55.556875 21.11352539 -54.566875 21.11352539 -53.546875 21.11352539 C-53.546875 20.45352539 -53.546875 19.79352539 -53.546875 19.11352539 C-52.886875 19.11352539 -52.226875 19.11352539 -51.546875 19.11352539 C-51.546875 18.45352539 -51.546875 17.79352539 -51.546875 17.11352539 C-50.886875 17.11352539 -50.226875 17.11352539 -49.546875 17.11352539 C-49.546875 16.45352539 -49.546875 15.79352539 -49.546875 15.11352539 C-48.226875 15.11352539 -46.906875 15.11352539 -45.546875 15.11352539 C-45.546875 14.45352539 -45.546875 13.79352539 -45.546875 13.11352539 C-44.226875 13.11352539 -42.906875 13.11352539 -41.546875 13.11352539 C-41.546875 12.45352539 -41.546875 11.79352539 -41.546875 11.11352539 C-40.226875 11.11352539 -38.906875 11.11352539 -37.546875 11.11352539 C-37.546875 10.45352539 -37.546875 9.79352539 -37.546875 9.11352539 C-36.226875 9.11352539 -34.906875 9.11352539 -33.546875 9.11352539 C-33.546875 8.45352539 -33.546875 7.79352539 -33.546875 7.11352539 C-32.226875 7.11352539 -30.906875 7.11352539 -29.546875 7.11352539 C-29.546875 6.45352539 -29.546875 5.79352539 -29.546875 5.11352539 C-27.896875 5.11352539 -26.246875 5.11352539 -24.546875 5.11352539 C-24.546875 4.45352539 -24.546875 3.79352539 -24.546875 3.11352539 C-22.566875 3.11352539 -20.586875 3.11352539 -18.546875 3.11352539 C-18.546875 2.45352539 -18.546875 1.79352539 -18.546875 1.11352539 C-12.32252634 0.19518493 -6.28632947 -0.0237141 0 0 Z " fill="#46E3B7" transform="translate(123.546875,33.886474609375)"/>
<path d="M0 0 C0.79719955 0.00222061 1.59439911 0.00444122 2.41575623 0.00672913 C3.32925842 0.00684998 4.24276062 0.00697083 5.1839447 0.00709534 C6.15045959 0.0122113 7.11697449 0.01732727 8.11277771 0.02259827 C9.4381958 0.02410889 9.4381958 0.02410889 10.79039001 0.02565002 C14.10489695 0.03089921 17.41938545 0.04486035 20.73387146 0.05775452 C28.13824646 0.07837952 35.54262146 0.09900452 43.17137146 0.12025452 C43.17137146 15.30025452 43.17137146 30.48025452 43.17137146 46.12025452 C27.99137146 46.12025452 12.81137146 46.12025452 -2.82862854 46.12025452 C-2.84925354 38.71587952 -2.86987854 31.31150452 -2.89112854 23.68275452 C-2.90023254 21.34254211 -2.90933655 19.00232971 -2.91871643 16.59120178 C-2.92163548 14.74802203 -2.92418406 12.90484163 -2.92628479 11.06166077 C-2.93140076 10.09514587 -2.93651672 9.12863098 -2.94178772 8.13282776 C-2.94190857 7.21932556 -2.94202942 6.30582336 -2.94215393 5.36463928 C-2.94437454 4.56743973 -2.94659515 3.77024017 -2.94888306 2.94888306 C-2.78513475 0.45887402 -2.49000904 0.16374831 0 0 Z " fill="#46E2B7" transform="translate(318.82862854003906,247.87974548339844)"/>
<path d="M0 0 C15.18 0 30.36 0 46 0 C46 15.18 46 30.36 46 46 C34.8934375 46.0309375 34.8934375 46.0309375 23.5625 46.0625 C21.2222876 46.071604 18.8820752 46.08070801 16.47094727 46.09008789 C14.62776751 46.09300694 12.78458712 46.09555552 10.94140625 46.09765625 C9.97489136 46.10277222 9.00837646 46.10788818 8.01257324 46.11315918 C7.09907104 46.11328003 6.18556885 46.11340088 5.24438477 46.11352539 C4.44718521 46.115746 3.64998566 46.11796661 2.82862854 46.12025452 C1 46 1 46 0 45 C-0.0928726 43.58774954 -0.11746772 42.17091066 -0.11352539 40.75561523 C-0.11340454 39.84211304 -0.11328369 38.92861084 -0.11315918 37.98742676 C-0.10804321 37.02091187 -0.10292725 36.05439697 -0.09765625 35.05859375 C-0.09664917 34.17498169 -0.09564209 33.29136963 -0.09460449 32.38098145 C-0.08935531 29.06647451 -0.07539417 25.75198601 -0.0625 22.4375 C-0.041875 15.033125 -0.02125 7.62875 0 0 Z " fill="#46E2B7" transform="translate(316,105)"/>
<path d="M0 0 C15.18 0 30.36 0 46 0 C46 14.85 46 29.7 46 45 C30.82 45 15.64 45 0 45 C0 30.15 0 15.3 0 0 Z " fill="#46E3B7" transform="translate(316,320)"/>
<path d="M0 0 C15.18 0 30.36 0 46 0 C46 14.85 46 29.7 46 45 C30.82 45 15.64 45 0 45 C0 30.15 0 15.3 0 0 Z " fill="#45E3B7" transform="translate(101,320)"/>
<path d="M0 0 C15.18 0 30.36 0 46 0 C46 14.85 46 29.7 46 45 C30.82 45 15.64 45 0 45 C0 30.15 0 15.3 0 0 Z " fill="#46E3B7" transform="translate(316,177)"/>
<path d="M0 0 C15.18 0 30.36 0 46 0 C46 14.85 46 29.7 46 45 C30.82 45 15.64 45 0 45 C0 30.15 0 15.3 0 0 Z " fill="#46E2B7" transform="translate(316,34)"/>
<path d="M0 0 C14.85 0 29.7 0 45 0 C45 14.85 45 29.7 45 45 C30.15 45 15.3 45 0 45 C0 30.15 0 15.3 0 0 Z " fill="#46E3B6" transform="translate(245,320)"/>
<path d="M0 0 C14.85 0 29.7 0 45 0 C45 14.85 45 29.7 45 45 C30.15 45 15.3 45 0 45 C0 30.15 0 15.3 0 0 Z " fill="#46E3B6" transform="translate(173,320)"/>
<path d="M0 0 C14.85 0 29.7 0 45 0 C45 14.85 45 29.7 45 45 C30.15 45 15.3 45 0 45 C0 30.15 0 15.3 0 0 Z " fill="#46E3B6" transform="translate(30,320)"/>
<path d="M0 0 C14.85 0 29.7 0 45 0 C45 14.85 45 29.7 45 45 C30.15 45 15.3 45 0 45 C0 30.15 0 15.3 0 0 Z " fill="#46E2B6" transform="translate(245,34)"/>
</svg>
